<?xml version="1.0" standalone="no"?>
<!DOCTYPE svg PUBLIC "-//W3C//DTD SVG 20010904//EN"
 "http://www.w3.org/TR/2001/REC-SVG-20010904/DTD/svg10.dtd">
<svg version="1.0" xmlns="http://www.w3.org/2000/svg"
 width="1797.000000pt" height="1797.000000pt" viewBox="0 0 1797.000000 1797.000000"
 preserveAspectRatio="xMidYMid meet">
<metadata>
Created by potrace 1.11, written by Peter Selinger 2001-2013
</metadata>
<g transform="translate(0.000000,1797.000000) scale(0.100000,-0.100000)"
fill="#000000" stroke="none">
<path d="M8455 17934 c-11 -2 -90 -8 -175 -14 -211 -14 -315 -25 -605 -64
-189 -26 -326 -49 -505 -85 -25 -5 -81 -16 -125 -25 -130 -26 -133 -27 -295
-68 -461 -118 -975 -293 -1345 -460 -60 -27 -137 -61 -170 -76 -257 -113 -736
-372 -1007 -546 -70 -44 -136 -85 -145 -91 -22 -12 -170 -112 -199 -134 -12
-9 -32 -23 -44 -31 -12 -8 -50 -35 -84 -60 -33 -25 -74 -53 -89 -63 -16 -10
-36 -25 -45 -32 -17 -14 -173 -137 -312 -245 -41 -32 -91 -74 -111 -92 -19
-18 -64 -58 -99 -88 -168 -144 -240 -211 -455 -425 -217 -217 -308 -314 -441
-471 -23 -27 -56 -65 -73 -84 -17 -19 -57 -69 -89 -110 -31 -41 -65 -84 -75
-95 -10 -11 -39 -49 -65 -85 -25 -36 -49 -67 -52 -70 -34 -27 -395 -576 -510
-775 -76 -131 -96 -167 -123 -215 -16 -30 -41 -75 -55 -100 -38 -67 -213 -417
-241 -480 -13 -30 -39 -86 -56 -125 -28 -59 -51 -112 -105 -240 -4 -11 -17
-40 -28 -65 -10 -25 -36 -90 -56 -145 -21 -55 -41 -109 -46 -120 -4 -11 -13
-36 -20 -55 -7 -19 -16 -44 -21 -55 -35 -84 -163 -487 -220 -700 -6 -22 -15
-51 -20 -65 -7 -22 -37 -145 -70 -290 -6 -25 -14 -61 -19 -80 -8 -32 -13 -52
-39 -172 -27 -120 -86 -477 -110 -663 -26 -203 -33 -261 -46 -420 -57 -678
-39 -1345 54 -2010 22 -155 77 -461 111 -615 28 -127 81 -339 111 -440 6 -19
13 -46 16 -60 2 -14 7 -32 10 -40 6 -15 18 -53 72 -245 57 -199 131 -405 251
-700 111 -274 322 -705 469 -959 28 -49 51 -90 51 -92 0 -19 315 -512 428
-669 39 -55 91 -127 114 -160 123 -172 354 -454 587 -717 23 -26 108 -116 237
-250 118 -122 362 -353 484 -458 41 -35 80 -69 85 -74 6 -6 37 -33 70 -61 33
-27 62 -52 65 -55 3 -3 23 -19 45 -36 22 -16 51 -39 65 -51 102 -87 523 -394
646 -470 32 -21 61 -41 62 -45 2 -4 8 -8 13 -8 6 0 37 -18 69 -40 32 -22 63
-40 69 -40 5 0 11 -4 13 -8 2 -5 48 -35 103 -67 55 -32 117 -69 137 -82 21
-12 40 -23 43 -23 3 0 29 -15 58 -33 29 -18 99 -57 157 -87 58 -29 155 -79
217 -111 62 -32 154 -77 205 -100 51 -23 131 -60 178 -81 244 -114 812 -321
1120 -407 80 -23 174 -50 210 -61 36 -10 119 -31 185 -45 66 -15 156 -35 200
-45 44 -11 94 -22 110 -25 53 -10 199 -36 230 -40 17 -3 50 -9 75 -14 96 -20
170 -31 295 -46 72 -9 141 -18 155 -20 39 -6 140 -16 190 -20 25 -2 83 -7 130
-10 47 -3 108 -8 135 -10 140 -12 337 -18 585 -19 288 0 462 7 720 28 41 3
102 8 135 11 70 5 98 8 300 35 44 5 103 13 130 16 59 6 122 16 270 43 61 11
128 22 150 26 44 6 246 50 420 91 61 15 205 53 320 86 116 33 217 61 225 63
30 8 401 135 462 159 227 88 413 163 473 191 39 17 99 44 135 60 123 54 565
281 687 352 67 40 146 85 177 102 201 112 706 459 936 644 8 7 47 37 85 67 39
30 75 59 81 65 6 5 30 26 54 45 24 19 53 44 64 55 12 11 55 49 96 84 223 189
625 588 816 811 22 25 41 47 44 50 3 3 28 32 55 65 28 33 53 62 57 65 3 3 38
46 77 95 40 50 77 97 84 105 82 103 160 205 188 245 19 28 36 52 39 55 39 36
374 550 477 730 33 58 66 116 74 130 8 14 19 32 26 40 15 19 291 567 323 640
13 30 39 88 58 129 54 119 192 473 192 494 0 27 21 99 34 116 8 11 8 13 -1 7
-9 -5 -11 -2 -7 8 3 9 10 16 15 16 5 0 9 9 9 20 0 11 4 20 10 20 5 0 7 7 4 15
-4 8 -1 15 6 15 6 0 10 6 7 13 -2 6 6 30 19 52 12 22 48 126 79 230 31 105 63
214 71 242 9 29 17 60 19 70 2 10 4 18 5 18 1 0 3 7 5 15 2 8 10 45 19 81 8
37 17 78 20 90 2 13 18 83 35 154 16 72 32 146 35 165 3 19 12 73 21 119 9 46
18 96 20 110 2 14 8 49 14 78 6 29 13 74 16 100 10 79 16 126 21 159 3 17 6
46 8 65 5 48 18 151 22 171 1 10 5 64 9 120 3 57 11 148 16 203 14 132 14 919
0 1076 -6 68 -16 185 -22 259 -10 126 -38 361 -60 510 -5 36 -14 94 -19 130
-18 117 -28 172 -65 355 -43 208 -50 244 -64 305 -11 48 -76 302 -92 358 -12
42 -27 94 -38 135 -6 17 -14 48 -20 67 -10 39 -50 167 -75 245 -9 28 -21 58
-26 67 -6 10 -10 25 -10 33 0 8 -4 23 -9 33 -5 9 -26 64 -46 122 -20 58 -40
114 -45 125 -4 11 -29 74 -55 140 -58 149 -47 123 -125 305 -17 41 -48 111
-68 155 -57 125 -304 610 -359 705 -27 47 -54 94 -61 105 -32 58 -139 236
-164 272 -15 23 -28 46 -28 52 0 6 -4 11 -10 11 -5 0 -10 5 -10 11 0 36 -480
686 -628 850 -26 30 -79 90 -116 134 -196 227 -583 615 -796 796 -41 35 -79
69 -85 75 -5 6 -39 35 -75 65 -36 30 -67 57 -70 60 -3 3 -78 63 -167 133 -190
148 -440 328 -603 434 -63 41 -145 94 -182 118 -66 43 -199 123 -228 137 -8 4
-24 13 -35 20 -67 40 -256 147 -290 164 -22 11 -116 58 -210 105 -497 250
-1035 457 -1580 609 -117 33 -288 78 -315 83 -14 3 -68 14 -120 26 -52 11
-120 25 -150 31 -30 6 -75 15 -100 20 -214 43 -617 97 -980 130 -108 10 -1242
22 -1285 13z"/>
</g>
</svg>
